<svg width="20" height="20" viewBox="0 0 20 20" fill="none" xmlns="http://www.w3.org/2000/svg">
<path d="M14.5833 12.0833V17.0833M12.0833 14.5833H17.0833M4.16667 8.33333H6.66667C7.58714 8.33333 8.33333 7.58714 8.33333 6.66667V4.16667C8.33333 3.24619 7.58714 2.5 6.66667 2.5H4.16667C3.24619 2.5 2.5 3.24619 2.5 4.16667V6.66667C2.5 7.58714 3.24619 8.33333 4.16667 8.33333ZM4.16667 17.5H6.66667C7.58714 17.5 8.33333 16.7538 8.33333 15.8333V13.3333C8.33333 12.4129 7.58714 11.6667 6.66667 11.6667H4.16667C3.24619 11.6667 2.5 12.4129 2.5 13.3333V15.8333C2.5 16.7538 3.24619 17.5 4.16667 17.5ZM13.3333 8.33333H15.8333C16.7538 8.33333 17.5 7.58714 17.5 6.66667V4.16667C17.5 3.24619 16.7538 2.5 15.8333 2.5H13.3333C12.4129 2.5 11.6667 3.24619 11.6667 4.16667V6.66667C11.6667 7.58714 12.4129 8.33333 13.3333 8.33333Z" stroke="white" strokeWidth="2" strokeLinecap="round" strokeLinejoin="round"/>
</svg>
